<svg xmlns="http://www.w3.org/2000/svg" xml:space="preserve" id="Layer_1" x="0" y="0"
    style="enable-background:new 0 0 413.62 38.96" version="1.1" viewBox="0 0 413.62 38.96"><style>.st2{fill:#8a9fff}</style><path d="M389.88.44c0-.29.01-.58.02-.87H253.14c-12.5 21.31-35.64 35.63-62.13 35.63-26.49 0-49.63-14.32-62.13-35.63H23.71c.01.29.02.58.02.87 0 13.11-10.63 23.74-23.74 23.74V39.4h413.62V24.17c-13.1 0-23.73-10.63-23.73-23.73z" style="fill:none"/><path d="M23.74.44c0-.29-.01-.58-.02-.87H0v24.61C13.11 24.17 23.74 13.54 23.74.44zM389.9-.44c-.01.29-.02.58-.02.87 0 13.11 10.63 23.74 23.74 23.74V-.44H389.9zM191.01 35.2c26.49 0 49.63-14.32 62.13-35.63H128.88c12.5 21.31 35.64 35.63 62.13 35.63z" class="st2"/></svg>